<svg width="24" height="24" viewBox="0 0 24 24" fill="none" xmlns="http://www.w3.org/2000/svg">
<path d="M12 23.5C18.3513 23.5 23.5 18.3513 23.5 12C23.5 5.64873 18.3513 0.5 12 0.5C5.64873 0.5 0.5 5.64873 0.5 12C0.5 18.3513 5.64873 23.5 12 23.5Z" stroke="#010201" stroke-miterlimit="10"/>
<g clip-path="url(#clip0_556_18210)">
<path d="M11.9998 7.49129C13.4687 7.49129 13.6421 7.49647 14.2218 7.52365C14.7576 7.54824 15.0488 7.63753 15.2429 7.71259C15.4991 7.81224 15.6829 7.93129 15.8757 8.12412C16.0685 8.31694 16.1876 8.49941 16.2872 8.75694C16.3623 8.95106 16.4516 9.24224 16.4762 9.778C16.5021 10.3578 16.5085 10.5325 16.5085 12C16.5085 13.4675 16.5034 13.6422 16.4762 14.222C16.4516 14.7578 16.3623 15.0489 16.2872 15.2431C16.1876 15.4993 16.0685 15.6831 15.8757 15.8759C15.6829 16.0687 15.5004 16.1878 15.2429 16.2874C15.0488 16.3625 14.7576 16.4518 14.2218 16.4764C13.6421 16.5022 13.4687 16.5087 11.9998 16.5087C10.531 16.5087 10.3576 16.5035 9.77783 16.4764C9.24206 16.4518 8.95089 16.3625 8.75677 16.2874C8.50054 16.1878 8.31677 16.0687 8.12395 15.8759C7.93112 15.6831 7.81206 15.5006 7.71242 15.2431C7.63736 15.0489 7.54806 14.7578 7.52348 14.222C7.49759 13.6422 7.49112 13.4675 7.49112 12C7.49112 10.5325 7.4963 10.3578 7.52348 9.778C7.54806 9.24224 7.63736 8.95106 7.71242 8.75694C7.81206 8.50071 7.93112 8.31694 8.12395 8.12412C8.31677 7.93129 8.49924 7.81224 8.75677 7.71259C8.95089 7.63753 9.24206 7.54824 9.77783 7.52365C10.3576 7.49776 10.5323 7.49129 11.9998 7.49129ZM11.9998 6.5C10.5064 6.5 10.3188 6.50647 9.73254 6.53365C9.14759 6.56082 8.74771 6.65271 8.39701 6.78988C8.03595 6.93094 7.72924 7.11859 7.42254 7.424C7.11712 7.72941 6.92818 8.03612 6.78842 8.39847C6.65254 8.74788 6.55936 9.14776 6.53218 9.734C6.50501 10.3202 6.49854 10.5079 6.49854 12.0013C6.49854 13.4947 6.50501 13.6824 6.53218 14.2686C6.55936 14.8535 6.65124 15.2534 6.78842 15.6041C6.92948 15.9652 7.11712 16.2719 7.42254 16.5786C7.72795 16.884 8.03465 17.0729 8.39701 17.2127C8.74642 17.3486 9.1463 17.4418 9.73254 17.4689C10.3188 17.4961 10.5064 17.5026 11.9998 17.5026C13.4932 17.5026 13.6809 17.4961 14.2671 17.4689C14.8521 17.4418 15.2519 17.3499 15.6027 17.2127C15.9637 17.0716 16.2704 16.884 16.5771 16.5786C16.8825 16.2732 17.0715 15.9665 17.2112 15.6041C17.3471 15.2547 17.4403 14.8548 17.4675 14.2686C17.4947 13.6824 17.5011 13.4947 17.5011 12.0013C17.5011 10.5079 17.4947 10.3202 17.4675 9.734C17.4403 9.14906 17.3484 8.74918 17.2112 8.39847C17.0702 8.03741 16.8825 7.73071 16.5771 7.424C16.2717 7.11859 15.965 6.92965 15.6027 6.78988C15.2532 6.654 14.8534 6.56082 14.2671 6.53365C13.6809 6.50647 13.4932 6.5 11.9998 6.5Z" fill="#010201"/>
<path d="M12 9.17578C10.4406 9.17578 9.17627 10.4401 9.17627 11.9995C9.17627 13.559 10.4406 14.8233 12 14.8233C13.5594 14.8233 14.8238 13.559 14.8238 11.9995C14.8238 10.4401 13.5594 9.17578 12 9.17578ZM12 13.8333C10.988 13.8333 10.1663 13.0128 10.1663 11.9995C10.1663 10.9863 10.9867 10.1658 12 10.1658C13.0133 10.1658 13.8338 10.9863 13.8338 11.9995C13.8338 13.0128 13.0133 13.8333 12 13.8333Z" fill="#010201"/>
<path d="M14.9364 9.7243C15.3009 9.7243 15.5964 9.4288 15.5964 9.0643C15.5964 8.69979 15.3009 8.4043 14.9364 8.4043C14.5719 8.4043 14.2764 8.69979 14.2764 9.0643C14.2764 9.4288 14.5719 9.7243 14.9364 9.7243Z" fill="#010201"/>
</g>
<defs>
<clipPath id="clip0_556_18210">
<rect width="11" height="11" fill="white" transform="translate(6.5 6.5)"/>
</clipPath>
</defs>
</svg>
