<svg width="162" height="162" viewBox="0 0 162 162" fill="none" xmlns="http://www.w3.org/2000/svg">
<circle cx="81" cy="81" r="80.5" stroke="#A80403"/>
<path d="M50.3751 112.626C60.7501 112.626 74.5834 109.168 74.5834 84.9593V57.2926C74.5834 52.9697 71.9689 50.3172 67.6667 50.376H53.8334C49.5105 50.376 46.9167 52.9697 46.9167 57.1958V78.0426C46.9167 82.3655 49.5105 84.9593 53.8334 84.9593C57.2917 84.9593 57.2917 84.9593 57.2917 88.4176V91.876C57.2917 95.3343 53.8334 98.7926 50.3751 98.7926C46.9167 98.7926 46.9167 98.8203 46.9167 102.358V109.168C46.9167 112.626 46.9167 112.626 50.3751 112.626Z" stroke="#A80403" stroke-width="2" stroke-linecap="round" stroke-linejoin="round"/>
<path d="M91.8751 112.626C102.25 112.626 116.083 109.168 116.083 84.9593V57.2926C116.083 52.9697 113.465 50.3172 109.167 50.376H95.3334C91.0105 50.376 88.4167 52.9697 88.4167 57.1958V78.0426C88.4167 82.3655 91.0105 84.9593 95.3334 84.9593H97.9272C97.9272 92.7405 98.7917 98.7926 88.4167 98.7926V109.168C88.4167 112.626 88.4167 112.626 91.8751 112.626Z" stroke="#A80403" stroke-width="2" stroke-linecap="round" stroke-linejoin="round"/>
</svg>
