<svg xmlns="http://www.w3.org/2000/svg">
    <defs>
        <symbol id="facebook" viewBox="0 0 32 32">
            <path fill="none" stroke-linejoin="miter" stroke-linecap="butt" stroke-miterlimit="10" stroke-width="1.3333" d="M16 31.333c8.468 0 15.333-6.865 15.333-15.333s-6.865-15.333-15.333-15.333c-8.468 0-15.333 6.865-15.333 15.333s6.865 15.333 15.333 15.333z"></path>
            <path fill="white" d="M19.19 10.686h1.477v-3.353h-2.222c-3.149-0.002-4.644 1.954-4.644 4.74v2.638h-2.467v3.186h2.467v8.102h3.699v-8.102h2.467l0.7-3.184h-3.167v-2.174c0-0.89 0.467-1.851 1.692-1.851l-0.002-0.002z"></path>
        </symbol>
        <symbol id="telegram" viewBox="0 0 32 32">
            <path fill="none" stroke-linejoin="miter" stroke-linecap="butt" stroke-miterlimit="10" stroke-width="1.3333" d="M16 31.333c8.468 0 15.333-6.865 15.333-15.333s-6.865-15.333-15.333-15.333c-8.468 0-15.333 6.865-15.333 15.333s6.865 15.333 15.333 15.333z"></path>
            <path fill="white" d="M23.3 8.982c-0.063-0.185-0.137-0.237-0.253-0.281-0.253-0.099-0.681 0.049-0.681 0.049s-15.19 5.6-16.057 6.22c-0.188 0.133-0.25 0.21-0.279 0.301-0.149 0.442 0.318 0.637 0.318 0.637l3.915 1.309c0 0 0.147 0.022 0.197-0.012 0.891-0.578 8.961-5.802 9.426-5.978 0.075-0.022 0.128 0.002 0.113 0.054-0.185 0.672-7.194 7.059-7.194 7.059s-0.027 0.035-0.043 0.074l-0.010-0.005-0.366 3.983c0 0-0.154 1.22 1.038 0 0.84-0.862 1.652-1.58 2.059-1.931 1.346 0.953 2.795 2.007 3.419 2.558 0.313 0.277 0.578 0.321 0.792 0.313 0.592-0.022 0.758-0.691 0.758-0.691s2.769-11.425 2.86-12.955c0.010-0.151 0.022-0.244 0.022-0.348 0-0.143-0.012-0.286-0.034-0.356z"></path>
        </symbol>
        <symbol id="instagram" viewBox="0 0 32 32">
            <path fill="none" stroke-linejoin="miter" stroke-linecap="butt" stroke-miterlimit="10" stroke-width="1.3333" d="M16 31.333c8.468 0 15.333-6.865 15.333-15.333s-6.865-15.333-15.333-15.333c-8.468 0-15.333 6.865-15.333 15.333s6.865 15.333 15.333 15.333z"></path>
            <path fill="white" d="M16 9.988c1.958 0 2.19 0.007 2.963 0.043 0.714 0.033 1.103 0.152 1.361 0.252 0.342 0.133 0.587 0.292 0.844 0.549s0.416 0.5 0.549 0.844c0.1 0.259 0.219 0.647 0.252 1.361 0.034 0.773 0.043 1.006 0.043 2.963s-0.007 2.19-0.043 2.963c-0.033 0.714-0.152 1.103-0.252 1.361-0.133 0.342-0.292 0.587-0.549 0.844s-0.5 0.416-0.844 0.549c-0.259 0.1-0.647 0.219-1.361 0.252-0.773 0.034-1.004 0.043-2.963 0.043s-2.19-0.007-2.963-0.043c-0.714-0.033-1.103-0.152-1.361-0.252-0.342-0.133-0.587-0.292-0.844-0.549s-0.416-0.5-0.549-0.844c-0.1-0.259-0.219-0.647-0.252-1.361-0.034-0.773-0.043-1.006-0.043-2.963s0.007-2.19 0.043-2.963c0.033-0.714 0.152-1.103 0.252-1.361 0.133-0.342 0.292-0.587 0.549-0.844s0.5-0.416 0.844-0.549c0.259-0.1 0.647-0.219 1.361-0.252 0.773-0.035 1.006-0.043 2.963-0.043zM16 8.667c-1.991 0-2.241 0.009-3.023 0.045-0.78 0.036-1.313 0.159-1.781 0.342-0.481 0.188-0.89 0.438-1.299 0.845-0.407 0.407-0.659 0.816-0.845 1.299-0.181 0.466-0.305 0.999-0.342 1.781s-0.045 1.032-0.045 3.023 0.009 2.241 0.045 3.023c0.036 0.78 0.159 1.313 0.342 1.781 0.188 0.481 0.438 0.89 0.845 1.299 0.407 0.407 0.816 0.659 1.299 0.845 0.466 0.181 0.999 0.305 1.781 0.342s1.032 0.045 3.023 0.045 2.241-0.009 3.023-0.045c0.78-0.036 1.313-0.159 1.781-0.342 0.481-0.188 0.89-0.438 1.299-0.845 0.407-0.407 0.659-0.816 0.845-1.299 0.181-0.466 0.305-0.999 0.342-1.781s0.045-1.032 0.045-3.023-0.009-2.241-0.045-3.023c-0.036-0.78-0.159-1.313-0.342-1.781-0.188-0.481-0.438-0.89-0.845-1.299-0.407-0.407-0.816-0.659-1.299-0.845-0.466-0.181-0.999-0.305-1.781-0.342s-1.032-0.045-3.023-0.045z"></path>
            <path fill="white" d="M16 12.234c-2.079 0-3.765 1.686-3.765 3.765s1.686 3.765 3.765 3.765 3.765-1.686 3.765-3.765c0-2.079-1.686-3.765-3.765-3.765zM16 18.444c-1.349 0-2.445-1.094-2.445-2.445s1.094-2.445 2.445-2.445 2.445 1.094 2.445 2.445c0 1.351-1.094 2.445-2.445 2.445z"></path>
            <path fill="white" d="M19.915 12.966c0.486 0 0.88-0.394 0.88-0.88s-0.394-0.88-0.88-0.88c-0.486 0-0.88 0.394-0.88 0.88s0.394 0.88 0.88 0.88z"></path>
        </symbol>
    </defs>
</svg>