<svg width="24" height="24" viewBox="0 0 24 24" fill="none" xmlns="http://www.w3.org/2000/svg">
<path d="M12 23.5C18.3513 23.5 23.5 18.3513 23.5 12C23.5 5.64873 18.3513 0.5 12 0.5C5.64873 0.5 0.5 5.64873 0.5 12C0.5 18.3513 5.64873 23.5 12 23.5Z" stroke="#010201" stroke-miterlimit="10"/>
<path d="M17.4747 6.73657C17.4278 6.59768 17.3718 6.5588 17.2851 6.52546C17.0955 6.45139 16.7741 6.5625 16.7741 6.5625C16.7741 6.5625 5.38161 10.7625 4.73154 11.2273C4.59069 11.3273 4.54374 11.3847 4.52208 11.4532C4.41012 11.7847 4.76043 11.931 4.76043 11.931L7.69658 12.9124C7.69658 12.9124 7.80673 12.9291 7.84465 12.9032C8.51278 12.4699 14.5657 8.55137 14.9142 8.41989C14.9701 8.40323 15.0099 8.42174 14.999 8.46063C14.86 8.96433 9.60346 13.755 9.60346 13.755C9.60346 13.755 9.58359 13.781 9.57095 13.8106L9.56373 13.8069L9.28925 16.7939C9.28925 16.7939 9.17369 17.7087 10.0675 16.7939C10.6977 16.1476 11.3063 15.6087 11.6114 15.3458C12.6209 16.0606 13.7079 16.8513 14.1756 17.2643C14.4104 17.4717 14.609 17.505 14.7697 17.4994C15.2139 17.4828 15.3385 16.9809 15.3385 16.9809C15.3385 16.9809 17.4151 8.41248 17.4837 7.26435C17.491 7.15138 17.5 7.08101 17.5 7.00324C17.5 6.89583 17.491 6.78842 17.4747 6.73657Z" fill="#010201"/>
</svg>
